<svg width="14" height="21" viewBox="0 0 14 21" fill="none" xmlns="http://www.w3.org/2000/svg">
<path d="M4.07 12.77C4.57 12.53 5.16 12.75 5.4 13.25L7.7 18.24L9.5 17.39L7.19 12.41C6.95 11.91 7.17 11.31 7.67 11.08L7.95 11L10.25 10.55L2 3.62V14.4L3.82 12.93L4.07 12.77ZM7.64 20.47C7.14 20.71 6.54 20.5 6.31 20L4.13 15.26L1.62 17.28C1.45 17.42 1.24 17.5 1 17.5C0.734784 17.5 0.48043 17.3946 0.292893 17.2071C0.105357 17.0196 0 16.7652 0 16.5V1.5C0 1.23478 0.105357 0.98043 0.292893 0.792893C0.48043 0.605357 0.734784 0.5 1 0.5C1.24 0.5 1.47 0.59 1.64 0.73L1.65 0.72L13.14 10.36C13.57 10.72 13.62 11.35 13.27 11.77C13.12 11.95 12.91 12.07 12.7 12.11L9.54 12.73L11.74 17.46C12 17.96 11.76 18.55 11.26 18.78L7.64 20.47Z" fill="black"/>
</svg>
